<?xml version="1.0" encoding="UTF-8"?>
<!DOCTYPE svg PUBLIC "-//W3C//DTD SVG 1.1//EN" "http://www.w3.org/Graphics/SVG/1.1/DTD/svg11.dtd">
<!-- Creator: CorelDRAW -->
<svg xmlns="http://www.w3.org/2000/svg" xml:space="preserve" width="7.4485cm" height="1.49355cm" version="1.1" style="shape-rendering:geometricPrecision; text-rendering:geometricPrecision; image-rendering:optimizeQuality; fill-rule:evenodd; clip-rule:evenodd"
viewBox="0 0 1058.13 212.17"
 xmlns:xlink="http://www.w3.org/1999/xlink"
 xmlns:xodm="http://www.corel.com/coreldraw/odm/2003">
 <defs>
  <style type="text/css">
   <![CDATA[
    .str0 {stroke:#EF305E;stroke-width:1.08;stroke-miterlimit:2.61313}
    .fil2 {fill:#616362}
    .fil1 {fill:#FB6600}
    .fil0 {fill:#332C2B;fill-rule:nonzero}
   ]]>
  </style>
 </defs>
 <g id="Layer_x0020_1">
  <metadata id="CorelCorpID_0Corel-Layer"/>
  <g id="_2240688942224">
   <path class="fil0" d="M396.61 138.49l0 -0.4c0,-6.08 -0.96,-11.3 -2.87,-15.66 -1.92,-4.36 -4.79,-8.16 -8.56,-11.4 -3.77,-3.24 -8.42,-6.01 -13.91,-8.32 -5.48,-2.31 -11.76,-4.39 -18.8,-6.24 -5.95,-1.59 -10.87,-2.97 -14.8,-4.16 -3.9,-1.19 -6.97,-2.44 -9.25,-3.77 -2.25,-1.32 -3.8,-2.81 -4.66,-4.46 -0.86,-1.65 -1.29,-3.6 -1.29,-5.85l0 -0.4c0,-3.43 1.49,-6.31 4.46,-8.62 2.97,-2.31 7.43,-3.47 13.38,-3.47 5.95,0 11.89,1.22 17.84,3.67 5.95,2.44 12.03,5.78 18.24,10.01l15.86 -22.99c-7.14,-5.68 -14.96,-10.04 -23.49,-13.08 -8.52,-3.04 -17.87,-4.56 -28.05,-4.56 -7.14,0 -13.68,0.99 -19.59,2.97 -5.91,1.98 -11.03,4.82 -15.3,8.52 -4.26,3.7 -7.56,8.09 -9.94,13.18 -2.35,5.09 -3.53,10.8 -3.53,17.15l0 0.4c0,6.87 1.09,12.62 3.27,17.24 2.18,4.63 5.29,8.49 9.25,11.6 3.96,3.11 8.82,5.72 14.5,7.83 5.72,2.11 12.06,4.03 19.09,5.75 5.81,1.45 10.57,2.84 14.2,4.16 3.63,1.32 6.48,2.64 8.56,3.96 2.05,1.32 3.43,2.74 4.16,4.26 0.73,1.52 1.09,3.27 1.09,5.25l0 0.4c0,4.1 -1.75,7.3 -5.25,9.61 -3.5,2.31 -8.42,3.47 -14.77,3.47 -7.93,0 -15.23,-1.52 -21.9,-4.56 -6.67,-3.04 -13.18,-7.14 -19.52,-12.29l-18.04 21.6c8.33,7.53 17.58,13.11 27.75,16.75 10.17,3.63 20.55,5.45 31.12,5.45 7.53,0 14.4,-0.96 20.58,-2.87 6.18,-1.92 11.53,-4.69 15.99,-8.32 4.46,-3.63 7.93,-8.13 10.44,-13.48 2.48,-5.35 3.73,-11.46 3.73,-18.33zm46.89 -76.91l0 -26.76 -31.71 0 0 26.76 31.71 0zm-0.79 117.93l0 -106.24 -30.13 0 0 106.24 30.13 0zm181.68 0l0 -69.18c0,-12.82 -3.17,-22.53 -9.51,-29.14 -6.34,-6.61 -15.13,-9.91 -26.36,-9.91 -7.27,0 -13.74,1.42 -19.43,4.29 -5.68,2.87 -10.83,7.07 -15.46,12.69 -2.77,-5.48 -6.71,-9.65 -11.79,-12.59 -5.09,-2.94 -11.13,-4.39 -18.14,-4.39 -3.83,0 -7.3,0.46 -10.41,1.39 -3.11,0.96 -5.91,2.21 -8.42,3.8 -2.51,1.62 -4.79,3.43 -6.84,5.48 -2.05,2.08 -3.93,4.23 -5.65,6.51l0 -15.2 -30.13 0 0 106.24 30.13 0 0 -59.13c0,-7.1 1.62,-12.49 4.86,-16.09 3.24,-3.63 7.7,-5.45 13.38,-5.45 5.68,0 10.04,1.82 13.08,5.45 3.04,3.6 4.56,8.99 4.56,16.09l0 59.13 30.13 0 0 -59.13c0,-7.1 1.62,-12.49 4.86,-16.09 3.24,-3.63 7.7,-5.45 13.38,-5.45 5.68,0 10.04,1.82 13.08,5.45 3.04,3.6 4.56,8.99 4.56,16.09l0 59.13 30.13 0zm127.17 -52.92l0 -0.4c0,-7.66 -1.45,-14.83 -4.36,-21.51 -2.91,-6.67 -6.91,-12.49 -11.99,-17.44 -5.09,-4.96 -11.13,-8.85 -18.14,-11.69 -7,-2.84 -14.6,-4.26 -22.79,-4.26 -8.32,0 -15.99,1.45 -22.99,4.36 -7,2.91 -13.08,6.87 -18.23,11.89 -5.15,5.02 -9.18,10.87 -12.09,17.54 -2.91,6.67 -4.36,13.84 -4.36,21.51l0 0.4c0,7.66 1.45,14.83 4.36,21.5 2.91,6.67 6.9,12.49 11.99,17.44 5.09,4.96 11.13,8.85 18.14,11.7 7,2.84 14.6,4.26 22.79,4.26 8.32,0 15.99,-1.45 22.99,-4.36 7,-2.91 13.08,-6.87 18.24,-11.89 5.15,-5.02 9.18,-10.87 12.09,-17.54 2.91,-6.67 4.36,-13.84 4.36,-21.5zm-29.73 0.4c0,3.96 -0.63,7.7 -1.88,11.2 -1.26,3.5 -3.07,6.57 -5.45,9.22 -2.38,2.64 -5.25,4.72 -8.62,6.24 -3.37,1.52 -7.23,2.28 -11.59,2.28 -4.23,0 -8.03,-0.79 -11.4,-2.38 -3.37,-1.59 -6.31,-3.73 -8.82,-6.44 -2.51,-2.71 -4.43,-5.81 -5.75,-9.31 -1.32,-3.5 -1.98,-7.24 -1.98,-11.2l0 -0.4c0,-3.96 0.63,-7.7 1.88,-11.2 1.26,-3.5 3.07,-6.57 5.45,-9.22 2.38,-2.64 5.25,-4.72 8.62,-6.24 3.37,-1.52 7.24,-2.28 11.59,-2.28 4.1,0 7.86,0.79 11.3,2.38 3.44,1.59 6.41,3.73 8.92,6.44 2.51,2.71 4.43,5.81 5.75,9.31 1.32,3.5 1.98,7.24 1.98,11.2l0 0.4zm106.75 -24.18l0 -31.51c-8.99,-0.4 -16.12,1.59 -21.41,5.95 -5.29,4.36 -9.45,10.17 -12.49,17.44l0 -21.41 -30.13 0 0 106.24 30.13 0 0 -39.25c0,-12.82 2.87,-22.27 8.62,-28.34 5.75,-6.08 13.64,-9.12 23.69,-9.12l1.59 0zm109.13 26.56l0 -0.4c0,-7.53 -1.02,-14.77 -3.07,-21.7 -2.05,-6.94 -5.22,-13.08 -9.51,-18.43 -4.29,-5.35 -9.68,-9.61 -16.16,-12.79 -6.47,-3.17 -14.14,-4.76 -22.99,-4.76 -7.8,0 -14.9,1.45 -21.31,4.36 -6.41,2.91 -11.92,6.87 -16.55,11.89 -4.63,5.02 -8.23,10.9 -10.8,17.64 -2.58,6.74 -3.87,13.87 -3.87,21.41l0 0.4c0,8.19 1.39,15.63 4.16,22.3 2.78,6.67 6.64,12.45 11.59,17.34 4.96,4.89 10.84,8.65 17.64,11.3 6.81,2.64 14.17,3.96 22.1,3.96 9.65,0 18.04,-1.75 25.17,-5.25 7.14,-3.5 13.21,-8.36 18.24,-14.57l-17.24 -15.26c-4.23,3.83 -8.32,6.61 -12.29,8.32 -3.96,1.72 -8.46,2.58 -13.48,2.58 -6.74,0 -12.39,-1.75 -16.95,-5.25 -4.56,-3.5 -7.56,-8.69 -9.02,-15.56l73.93 0c0.13,-1.45 0.23,-2.71 0.3,-3.77 0.07,-1.06 0.1,-2.31 0.1,-3.77zm-29.34 -11.3l-45.39 0c1.19,-6.87 3.73,-12.35 7.63,-16.45 3.9,-4.1 9.02,-6.14 15.36,-6.14 6.34,0 11.43,2.08 15.26,6.24 3.83,4.16 6.21,9.61 7.14,16.35zm149.76 37.46l0 -82.26 -30.13 0 0 13.87c-4.1,-4.49 -8.79,-8.26 -14.07,-11.3 -5.29,-3.04 -12.03,-4.56 -20.22,-4.56 -6.08,0 -11.96,1.09 -17.64,3.27 -5.68,2.18 -10.7,5.38 -15.06,9.61 -4.36,4.23 -7.86,9.41 -10.51,15.56 -2.64,6.14 -3.96,13.18 -3.96,21.11l0 0.4c0,7.93 1.29,14.97 3.87,21.11 2.58,6.14 6.04,11.33 10.41,15.56 4.36,4.23 9.38,7.43 15.06,9.61 5.68,2.18 11.63,3.27 17.84,3.27 8.06,0 14.73,-1.52 20.02,-4.56 5.29,-3.04 10.18,-7.27 14.67,-12.69l0 5.15c0,9.51 -2.48,16.71 -7.43,21.6 -4.96,4.89 -12.59,7.33 -22.89,7.33 -7.14,0 -13.51,-0.86 -19.13,-2.58 -5.62,-1.72 -11.2,-4.1 -16.75,-7.14l-10.31 22.6c6.74,3.57 14.07,6.31 22,8.23 7.93,1.92 16.25,2.87 24.97,2.87 9.91,0 18.57,-1.06 25.97,-3.17 7.4,-2.11 13.58,-5.42 18.53,-9.91 4.96,-4.49 8.65,-10.27 11.1,-17.34 2.44,-7.07 3.67,-15.63 3.67,-25.67zm-29.73 -34.29c0,3.57 -0.66,6.87 -1.98,9.91 -1.32,3.04 -3.14,5.65 -5.45,7.83 -2.31,2.18 -5.05,3.87 -8.23,5.05 -3.17,1.19 -6.61,1.78 -10.31,1.78 -7.4,0 -13.54,-2.25 -18.43,-6.74 -4.89,-4.49 -7.33,-10.44 -7.33,-17.84l0 -0.4c0,-3.57 0.66,-6.87 1.98,-9.91 1.32,-3.04 3.14,-5.65 5.45,-7.83 2.31,-2.18 5.02,-3.87 8.13,-5.05 3.11,-1.19 6.51,-1.78 10.21,-1.78 3.7,0 7.14,0.6 10.31,1.78 3.17,1.19 5.91,2.87 8.23,5.05 2.31,2.18 4.13,4.79 5.45,7.83 1.32,3.04 1.98,6.34 1.98,9.91l0 0.4z"/>
   <polygon class="fil1 str0" points="0.69,147.05 0.54,211.63 95.38,211.34 137.7,166.95 1.66,31.49 1.66,95.97 70.26,164.56 19.14,164.56 "/>
   <polygon class="fil2" points="194.03,211.49 240.54,211.49 240.54,0.73 164.97,76.3 88.67,0 34.85,0 29.17,5.68 163.94,140.44 194,110.38 "/>
  </g>
 </g>
</svg>
