<?xml version="1.0" encoding="UTF-8"?>
<!DOCTYPE svg PUBLIC "-//W3C//DTD SVG 1.1//EN" "http://www.w3.org/Graphics/SVG/1.1/DTD/svg11.dtd">
<!-- Creator: CorelDRAW -->
<svg xmlns="http://www.w3.org/2000/svg" xml:space="preserve" width="7.4485cm" height="1.49355cm" version="1.1" style="shape-rendering:geometricPrecision; text-rendering:geometricPrecision; image-rendering:optimizeQuality; fill-rule:evenodd; clip-rule:evenodd"
viewBox="0 0 1061.36 212.82"
 xmlns:xlink="http://www.w3.org/1999/xlink"
 xmlns:xodm="http://www.corel.com/coreldraw/odm/2003">
 <defs>
  <style type="text/css">
   <![CDATA[
    .str0 {stroke:#EF305E;stroke-width:1.09;stroke-miterlimit:2.61313}
    .fil2 {fill:#616362}
    .fil1 {fill:#FB6600}
    .fil0 {fill:#FEFEFE;fill-rule:nonzero}
   ]]>
  </style>
 </defs>
 <g id="Layer_x0020_1">
  <metadata id="CorelCorpID_0Corel-Layer"/>
  <g id="_2240682409408">
   <path class="fil0" d="M397.82 138.91l0 -0.4c0,-6.1 -0.96,-11.33 -2.88,-15.71 -1.92,-4.37 -4.8,-8.18 -8.58,-11.43 -3.78,-3.25 -8.45,-6.03 -13.95,-8.35 -5.5,-2.32 -11.8,-4.41 -18.85,-6.26 -5.96,-1.59 -10.9,-2.98 -14.84,-4.18 -3.91,-1.19 -6.99,-2.45 -9.28,-3.78 -2.25,-1.33 -3.81,-2.82 -4.67,-4.47 -0.86,-1.66 -1.29,-3.61 -1.29,-5.87l0 -0.4c0,-3.45 1.49,-6.33 4.47,-8.65 2.98,-2.32 7.46,-3.48 13.42,-3.48 5.96,0 11.93,1.23 17.89,3.68 5.96,2.45 12.06,5.8 18.29,10.04l15.91 -23.06c-7.16,-5.7 -15.01,-10.07 -23.56,-13.12 -8.55,-3.05 -17.93,-4.57 -28.13,-4.57 -7.16,0 -13.72,0.99 -19.65,2.98 -5.93,1.99 -11.07,4.84 -15.34,8.55 -4.27,3.71 -7.59,8.12 -9.97,13.22 -2.35,5.1 -3.55,10.84 -3.55,17.2l0 0.4c0,6.89 1.09,12.66 3.28,17.3 2.19,4.64 5.3,8.52 9.28,11.63 3.98,3.11 8.85,5.73 14.55,7.85 5.73,2.12 12.09,4.04 19.15,5.77 5.83,1.46 10.6,2.85 14.25,4.18 3.64,1.33 6.49,2.65 8.58,3.98 2.05,1.33 3.45,2.75 4.18,4.27 0.73,1.52 1.09,3.28 1.09,5.27l0 0.4c0,4.11 -1.76,7.32 -5.27,9.64 -3.51,2.32 -8.45,3.48 -14.81,3.48 -7.95,0 -15.28,-1.52 -21.97,-4.57 -6.69,-3.05 -13.22,-7.16 -19.58,-12.33l-18.09 21.67c8.35,7.55 17.63,13.15 27.83,16.8 10.21,3.64 20.61,5.47 31.21,5.47 7.55,0 14.45,-0.96 20.64,-2.88 6.2,-1.92 11.56,-4.71 16.04,-8.35 4.47,-3.64 7.95,-8.15 10.47,-13.52 2.49,-5.37 3.74,-11.5 3.74,-18.39zm47.04 -77.14l0 -26.84 -31.81 0 0 26.84 31.81 0zm-0.8 118.3l0 -106.56 -30.22 0 0 106.56 30.22 0zm182.23 0l0 -69.39c0,-12.86 -3.18,-22.6 -9.54,-29.23 -6.36,-6.63 -15.18,-9.94 -26.44,-9.94 -7.29,0 -13.78,1.42 -19.48,4.31 -5.7,2.88 -10.87,7.09 -15.51,12.72 -2.78,-5.5 -6.73,-9.68 -11.83,-12.62 -5.1,-2.95 -11.17,-4.41 -18.19,-4.41 -3.84,0 -7.32,0.46 -10.44,1.39 -3.11,0.96 -5.93,2.22 -8.45,3.81 -2.52,1.62 -4.8,3.45 -6.86,5.5 -2.05,2.09 -3.94,4.24 -5.67,6.53l0 -15.24 -30.22 0 0 106.56 30.22 0 0 -59.31c0,-7.12 1.62,-12.53 4.87,-16.14 3.25,-3.64 7.72,-5.47 13.42,-5.47 5.7,0 10.07,1.82 13.12,5.47 3.05,3.61 4.57,9.01 4.57,16.14l0 59.31 30.22 0 0 -59.31c0,-7.12 1.62,-12.53 4.87,-16.14 3.25,-3.64 7.72,-5.47 13.42,-5.47 5.7,0 10.07,1.82 13.12,5.47 3.05,3.61 4.57,9.01 4.57,16.14l0 59.31 30.22 0zm127.56 -53.08l0 -0.4c0,-7.69 -1.46,-14.88 -4.37,-21.57 -2.92,-6.69 -6.93,-12.53 -12.03,-17.5 -5.1,-4.97 -11.17,-8.88 -18.19,-11.73 -7.02,-2.85 -14.65,-4.27 -22.86,-4.27 -8.35,0 -16.04,1.46 -23.06,4.37 -7.02,2.92 -13.12,6.89 -18.29,11.93 -5.17,5.04 -9.21,10.9 -12.13,17.6 -2.92,6.69 -4.37,13.88 -4.37,21.57l0 0.4c0,7.69 1.46,14.88 4.37,21.57 2.92,6.69 6.93,12.53 12.03,17.5 5.1,4.97 11.17,8.88 18.19,11.73 7.02,2.85 14.65,4.27 22.86,4.27 8.35,0 16.04,-1.46 23.06,-4.37 7.02,-2.92 13.12,-6.89 18.29,-11.93 5.17,-5.04 9.21,-10.9 12.13,-17.6 2.92,-6.69 4.37,-13.88 4.37,-21.57zm-29.82 0.4c0,3.98 -0.63,7.72 -1.89,11.23 -1.26,3.51 -3.08,6.59 -5.47,9.24 -2.39,2.65 -5.27,4.74 -8.65,6.26 -3.38,1.52 -7.26,2.29 -11.63,2.29 -4.24,0 -8.05,-0.8 -11.43,-2.39 -3.38,-1.59 -6.33,-3.74 -8.85,-6.46 -2.52,-2.72 -4.44,-5.83 -5.77,-9.34 -1.33,-3.51 -1.99,-7.26 -1.99,-11.23l0 -0.4c0,-3.98 0.63,-7.72 1.89,-11.23 1.26,-3.51 3.08,-6.59 5.47,-9.24 2.39,-2.65 5.27,-4.74 8.65,-6.26 3.38,-1.52 7.26,-2.29 11.63,-2.29 4.11,0 7.89,0.8 11.33,2.39 3.45,1.59 6.43,3.74 8.95,6.46 2.52,2.72 4.44,5.83 5.77,9.34 1.33,3.51 1.99,7.26 1.99,11.23l0 0.4zm107.08 -24.26l0 -31.61c-9.01,-0.4 -16.17,1.59 -21.47,5.96 -5.3,4.37 -9.48,10.21 -12.53,17.5l0 -21.47 -30.22 0 0 106.56 30.22 0 0 -39.37c0,-12.86 2.88,-22.33 8.65,-28.43 5.77,-6.1 13.69,-9.15 23.76,-9.15l1.59 0zm109.46 26.64l0 -0.4c0,-7.55 -1.03,-14.81 -3.08,-21.77 -2.05,-6.96 -5.24,-13.12 -9.54,-18.49 -4.31,-5.37 -9.71,-9.64 -16.2,-12.82 -6.49,-3.18 -14.18,-4.77 -23.06,-4.77 -7.82,0 -14.94,1.46 -21.37,4.37 -6.43,2.92 -11.96,6.89 -16.6,11.93 -4.64,5.04 -8.25,10.93 -10.84,17.69 -2.58,6.76 -3.88,13.92 -3.88,21.47l0 0.4c0,8.22 1.39,15.67 4.18,22.37 2.78,6.69 6.66,12.49 11.63,17.4 4.97,4.9 10.87,8.68 17.69,11.33 6.83,2.65 14.22,3.98 22.17,3.98 9.68,0 18.09,-1.76 25.25,-5.27 7.16,-3.51 13.25,-8.38 18.29,-14.61l-17.3 -15.31c-4.24,3.84 -8.35,6.63 -12.33,8.35 -3.98,1.72 -8.48,2.58 -13.52,2.58 -6.76,0 -12.43,-1.76 -17,-5.27 -4.57,-3.51 -7.59,-8.71 -9.05,-15.61l74.16 0c0.13,-1.46 0.23,-2.72 0.3,-3.78 0.07,-1.06 0.1,-2.32 0.1,-3.78zm-29.42 -11.33l-45.53 0c1.19,-6.89 3.74,-12.39 7.65,-16.5 3.91,-4.11 9.05,-6.16 15.41,-6.16 6.36,0 11.47,2.09 15.31,6.26 3.84,4.18 6.23,9.64 7.16,16.4zm150.22 37.58l0 -82.51 -30.22 0 0 13.92c-4.11,-4.51 -8.81,-8.28 -14.12,-11.33 -5.3,-3.05 -12.06,-4.57 -20.28,-4.57 -6.1,0 -12,1.09 -17.69,3.28 -5.7,2.19 -10.74,5.4 -15.11,9.64 -4.37,4.24 -7.89,9.44 -10.54,15.61 -2.65,6.16 -3.98,13.22 -3.98,21.17l0 0.4c0,7.95 1.29,15.01 3.88,21.17 2.58,6.16 6.06,11.37 10.44,15.61 4.37,4.24 9.41,7.46 15.11,9.64 5.7,2.19 11.66,3.28 17.89,3.28 8.09,0 14.78,-1.52 20.08,-4.57 5.3,-3.05 10.21,-7.29 14.71,-12.72l0 5.17c0,9.54 -2.49,16.77 -7.46,21.67 -4.97,4.9 -12.62,7.36 -22.96,7.36 -7.16,0 -13.55,-0.86 -19.19,-2.58 -5.63,-1.72 -11.23,-4.11 -16.8,-7.16l-10.34 22.66c6.76,3.58 14.12,6.33 22.07,8.25 7.95,1.92 16.3,2.88 25.05,2.88 9.94,0 18.62,-1.06 26.04,-3.18 7.42,-2.12 13.62,-5.43 18.59,-9.94 4.97,-4.51 8.68,-10.31 11.13,-17.4 2.45,-7.09 3.68,-15.67 3.68,-25.75zm-29.82 -34.4c0,3.58 -0.66,6.89 -1.99,9.94 -1.33,3.05 -3.15,5.67 -5.47,7.85 -2.32,2.19 -5.07,3.88 -8.25,5.07 -3.18,1.19 -6.63,1.79 -10.34,1.79 -7.42,0 -13.59,-2.25 -18.49,-6.76 -4.9,-4.51 -7.36,-10.47 -7.36,-17.89l0 -0.4c0,-3.58 0.66,-6.89 1.99,-9.94 1.33,-3.05 3.15,-5.67 5.47,-7.85 2.32,-2.19 5.04,-3.88 8.15,-5.07 3.11,-1.19 6.53,-1.79 10.24,-1.79 3.71,0 7.16,0.6 10.34,1.79 3.18,1.19 5.93,2.88 8.25,5.07 2.32,2.19 4.14,4.8 5.47,7.85 1.33,3.05 1.99,6.36 1.99,9.94l0 0.4z"/>
   <polygon class="fil1 str0" points="0.69,147.5 0.54,212.28 95.67,211.98 138.12,167.46 1.67,31.59 1.67,96.26 70.48,165.07 19.2,165.07 "/>
   <polygon class="fil2" points="194.62,212.14 241.27,212.14 241.27,0.74 165.48,76.53 88.94,0 34.96,0 29.26,5.69 164.44,140.87 194.59,110.71 "/>
  </g>
 </g>
</svg>
